<?xml version="1.0" encoding="utf-8"?>
<!-- Generator: Adobe Illustrator 24.0.1, SVG Export Plug-In . SVG Version: 6.00 Build 0)  -->
<!DOCTYPE svg PUBLIC "-//W3C//DTD SVG 1.1//EN" "http://www.w3.org/Graphics/SVG/1.1/DTD/svg11.dtd" [
	<!ENTITY ns_extend "http://ns.adobe.com/Extensibility/1.0/">
	<!ENTITY ns_ai "http://ns.adobe.com/AdobeIllustrator/10.0/">
	<!ENTITY ns_graphs "http://ns.adobe.com/Graphs/1.0/">
	<!ENTITY ns_vars "http://ns.adobe.com/Variables/1.0/">
	<!ENTITY ns_imrep "http://ns.adobe.com/ImageReplacement/1.0/">
	<!ENTITY ns_sfw "http://ns.adobe.com/SaveForWeb/1.0/">
	<!ENTITY ns_custom "http://ns.adobe.com/GenericCustomNamespace/1.0/">
	<!ENTITY ns_adobe_xpath "http://ns.adobe.com/XPath/1.0/">
]>
<svg version="1.1" id="Layer_1" xmlns:x="&ns_extend;" xmlns:i="&ns_ai;" xmlns:graph="&ns_graphs;"
	 xmlns="http://www.w3.org/2000/svg" xmlns:xlink="http://www.w3.org/1999/xlink" x="0px" y="0px" width="55.4px" height="52px"
	 viewBox="0 0 55.4 52" style="enable-background:new 0 0 55.4 52;" xml:space="preserve">
<style type="text/css">
	.st0{fill:#1C1C1C;}
	.st1{fill-rule:evenodd;clip-rule:evenodd;fill:#1C1C1C;}
</style>
<metadata>
	<sfw  xmlns="&ns_sfw;">
		<slices></slices>
		<sliceSourceBounds  bottomLeftOrigin="true" height="52" width="55.4" x="0" y="0"></sliceSourceBounds>
	</sfw>
</metadata>
<polygon class="st0" points="0,0 0,52 42,52 42,40 40,40 40,50 2,50 2,2 40,2 40,20 42,20 42,0 "/>
<path class="st1" d="M10,10h20v2H10V10z M10,18h12v2H10V18z"/>
<path class="st0" d="M29,40l0.1-4.5l19.8-18l3.7,4.5l-19,18H29z M27.1,34.5L27,42h7.4l21-19.9l-6.3-7.5L27.1,34.5z"/>
</svg>
