<svg width="48" height="52" viewBox="0 0 48 52" fill="none" xmlns="http://www.w3.org/2000/svg">
<g clip-path="url(#clip0_16_30)">
<mask id="path-1-inside-1_16_30" fill="white">
<path fill-rule="evenodd" clip-rule="evenodd" d="M32 50L0.00076 49.9999V0.00015H39.9992L40 34"/>
</mask>
<path fill-rule="evenodd" clip-rule="evenodd" d="M32 50L0.00076 49.9999V0.00015H39.9992L40 34"/>
<path d="M0.00076 49.9999H-1.99924V51.9998L0.000753801 51.9999L0.00076 49.9999ZM0.00076 0.00015V-1.99985H-1.99924V0.00015H0.00076ZM39.9992 0.00015L41.9992 0.000103101L41.9992 -1.99985H39.9992V0.00015ZM32 48L0.000766199 47.9999L0.000753801 51.9999L32 52L32 48ZM2.00076 49.9999V0.00015H-1.99924V49.9999H2.00076ZM0.00076 2.00015H39.9992V-1.99985H0.00076V2.00015ZM37.9992 0.000196899L38 34L42 34L41.9992 0.000103101L37.9992 0.000196899Z" fill="#1C1C1C" mask="url(#path-1-inside-1_16_30)"/>
<path fill-rule="evenodd" clip-rule="evenodd" d="M14 9.00001H32.0001V11H14V9.00001Z" fill="#1C1C1C"/>
<path fill-rule="evenodd" clip-rule="evenodd" d="M8.99995 9.00001H13V11H8.99995V9.00001Z" fill="#1C1C1C"/>
<path fill-rule="evenodd" clip-rule="evenodd" d="M8.99995 17H21V19H8.99995V17Z" fill="#1C1C1C"/>
<path d="M27.6018 28.0012L46.6323 46.0801L42.8993 50.5596L23.0011 32.5561L22.9942 28.012L27.6018 28.0012Z" stroke="#1C1C1C" stroke-width="2"/>
<mask id="path-7-inside-2_16_30" fill="white">
<path fill-rule="evenodd" clip-rule="evenodd" d="M39.1716 46.4142L43.4142 42.1716L44.8284 43.5857L40.5858 47.8284L39.1716 46.4142Z"/>
</mask>
<path fill-rule="evenodd" clip-rule="evenodd" d="M39.1716 46.4142L43.4142 42.1716L44.8284 43.5857L40.5858 47.8284L39.1716 46.4142Z" fill="white"/>
<path d="M39.1716 46.4142L37.7574 45L36.3432 46.4141L37.7574 47.8284L39.1716 46.4142ZM43.4142 42.1716L44.8283 40.7573L43.4141 39.3433L41.9999 40.7574L43.4142 42.1716ZM44.8284 43.5857L46.2426 44.9999L47.6569 43.5857L46.2426 42.1714L44.8284 43.5857ZM40.5858 47.8284L39.1715 49.2426L40.5857 50.6569L42 49.2426L40.5858 47.8284ZM40.5858 47.8284L44.8284 43.5858L41.9999 40.7574L37.7574 45L40.5858 47.8284ZM42 43.5859L43.4143 45L46.2426 42.1714L44.8283 40.7573L42 43.5859ZM43.4142 42.1715L39.1715 46.4142L42 49.2426L46.2426 44.9999L43.4142 42.1715ZM42 46.4142L40.5859 45L37.7574 47.8284L39.1715 49.2426L42 46.4142Z" fill="#1C1C1C" mask="url(#path-7-inside-2_16_30)"/>
</g>
<defs>
<clipPath id="clip0_16_30">
<rect width="48" height="52" fill="white"/>
</clipPath>
</defs>
</svg>
