<?xml version="1.0" encoding="utf-8"?>
<!-- Generator: Adobe Illustrator 24.0.1, SVG Export Plug-In . SVG Version: 6.00 Build 0)  -->
<!DOCTYPE svg PUBLIC "-//W3C//DTD SVG 1.1//EN" "http://www.w3.org/Graphics/SVG/1.1/DTD/svg11.dtd" [
	<!ENTITY ns_extend "http://ns.adobe.com/Extensibility/1.0/">
	<!ENTITY ns_ai "http://ns.adobe.com/AdobeIllustrator/10.0/">
	<!ENTITY ns_graphs "http://ns.adobe.com/Graphs/1.0/">
	<!ENTITY ns_vars "http://ns.adobe.com/Variables/1.0/">
	<!ENTITY ns_imrep "http://ns.adobe.com/ImageReplacement/1.0/">
	<!ENTITY ns_sfw "http://ns.adobe.com/SaveForWeb/1.0/">
	<!ENTITY ns_custom "http://ns.adobe.com/GenericCustomNamespace/1.0/">
	<!ENTITY ns_adobe_xpath "http://ns.adobe.com/XPath/1.0/">
]>
<svg version="1.1" id="Layer_1" xmlns:x="&ns_extend;" xmlns:i="&ns_ai;" xmlns:graph="&ns_graphs;"
	 xmlns="http://www.w3.org/2000/svg" xmlns:xlink="http://www.w3.org/1999/xlink" x="0px" y="0px" width="62px" height="42px"
	 viewBox="0 0 62 42" style="enable-background:new 0 0 62 42;" xml:space="preserve">
<style type="text/css">
	.st0{fill:#1C1C1C;}
	.st1{fill-rule:evenodd;clip-rule:evenodd;fill:#1C1C1C;}
</style>
<metadata>
	<sfw  xmlns="&ns_sfw;">
		<slices></slices>
		<sliceSourceBounds  bottomLeftOrigin="true" height="16383" width="62" x="0" y="-8170"></sliceSourceBounds>
	</sfw>
</metadata>
<polygon class="st0" points="0,0 0,42 26,42 26,40 2,40 2,2 44.6,2 54,11.5 54,19 56,19 56,10.7 45.4,0 "/>
<rect x="9" y="31" class="st1" width="10" height="2"/>
<g>
	<path class="st0" d="M60,24v4H38v-4H60 M62,22H36v8h26V22L62,22z"/>
</g>
<g>
	<path class="st0" d="M54,30v4H32v-4H54 M56,28H30v8h26V28L56,28z"/>
</g>
<g>
	<path class="st0" d="M58,36v4H36v-4H58 M60,34H34v8h26V34L60,34z"/>
</g>
</svg>
