<?xml version="1.0" encoding="utf-8"?>
<!-- Generator: Adobe Illustrator 24.0.1, SVG Export Plug-In . SVG Version: 6.00 Build 0)  -->
<!DOCTYPE svg PUBLIC "-//W3C//DTD SVG 1.1//EN" "http://www.w3.org/Graphics/SVG/1.1/DTD/svg11.dtd" [
	<!ENTITY ns_extend "http://ns.adobe.com/Extensibility/1.0/">
	<!ENTITY ns_ai "http://ns.adobe.com/AdobeIllustrator/10.0/">
	<!ENTITY ns_graphs "http://ns.adobe.com/Graphs/1.0/">
	<!ENTITY ns_vars "http://ns.adobe.com/Variables/1.0/">
	<!ENTITY ns_imrep "http://ns.adobe.com/ImageReplacement/1.0/">
	<!ENTITY ns_sfw "http://ns.adobe.com/SaveForWeb/1.0/">
	<!ENTITY ns_custom "http://ns.adobe.com/GenericCustomNamespace/1.0/">
	<!ENTITY ns_adobe_xpath "http://ns.adobe.com/XPath/1.0/">
]>
<svg version="1.1" id="Layer_1" xmlns:x="&ns_extend;" xmlns:i="&ns_ai;" xmlns:graph="&ns_graphs;"
	 xmlns="http://www.w3.org/2000/svg" xmlns:xlink="http://www.w3.org/1999/xlink" x="0px" y="0px" width="20px" height="16px"
	 viewBox="0 0 20 16" style="enable-background:new 0 0 20 16;" xml:space="preserve">
<style type="text/css">
	.st0{fill:#FFFFFF;}
	.st1{fill:#1C1C1C;}
</style>
<metadata>
	<sfw  xmlns="&ns_sfw;">
		<slices></slices>
		<sliceSourceBounds  bottomLeftOrigin="true" height="15.952" width="19.963" x="0.018" y="0.048"></sliceSourceBounds>
	</sfw>
</metadata>
<path class="st0" d="M16.987,0H3.013C1.359,0,0.018,1.346,0.018,3.006v7.13c0,1.66,1.341,3.006,2.995,3.006H7.86l1.525,2.483
	c0,0,0.016,0.029,0.05,0.071c0.089,0.153,0.253,0.257,0.443,0.257c0.189,0,0.352-0.103,0.442-0.254
	c0.038-0.045,0.051-0.074,0.051-0.074l1.525-2.483h5.091c1.654,0,2.995-1.346,2.995-3.006v-7.13C19.982,1.346,18.64,0,16.987,0z"/>
<g>
	<path class="st1" d="M4.73,5.235c0,0-0.518,0-0.987,0.457V3.851H2.582v4.837h1.173V8.309c0,0,0.277,0.5,0.975,0.5
		c0,0,1.636-0.06,1.636-1.805C6.366,7.004,6.306,5.235,4.73,5.235z M4.474,7.788c-0.412,0-0.746-0.334-0.746-0.746
		c0-0.412,0.334-0.746,0.746-0.746c0.412,0,0.746,0.334,0.746,0.746C5.22,7.454,4.886,7.788,4.474,7.788z"/>
	<path class="st1" d="M6.739,3.743v1.119c0,0,0.53-0.024,0.53,0.963v2.863h1.119V5.56C8.388,5.56,8.436,3.743,6.739,3.743z"/>
	<path class="st1" d="M11.124,5.25c0,0-1.918,0-1.918,1.791c0,0-0.062,1.767,1.918,1.767c0,0,1.962-0.003,1.962-1.767
		C13.087,7.042,13.151,5.25,11.124,5.25z M11.125,7.788c-0.412,0-0.746-0.334-0.746-0.746c0-0.412,0.334-0.746,0.746-0.746
		c0.412,0,0.746,0.334,0.746,0.746C11.87,7.454,11.536,7.788,11.125,7.788z"/>
	<path class="st1" d="M16.29,5.368v0.325c0,0-0.334-0.442-0.974-0.442c0,0-1.642-0.069-1.642,1.779c0,0-0.018,1.722,1.597,1.722
		c0,0,0.659,0.027,1.019-0.442V8.58c0,0,0.082,0.848-0.74,0.848h-0.28v1.028h0.451c0,0,1.696,0.018,1.696-1.814V5.368H16.29z
		 M15.596,7.788c-0.412,0-0.746-0.334-0.746-0.746c0-0.412,0.334-0.746,0.746-0.746c0.412,0,0.746,0.334,0.746,0.746
		C16.342,7.454,16.008,7.788,15.596,7.788z"/>
</g>
</svg>
