<svg xmlns="http://www.w3.org/2000/svg" width="19" height="19">
    <path fill-rule="evenodd" fill="#FFF" d="M13.739 18.879H5.133a4.708 4.708 0 0 1-4.702-4.702V5.569A4.707 4.707 0 0 1 5.133.868h8.606a4.707 4.707 0 0 1 4.702 4.701v8.608a4.708 4.708 0 0 1-4.702 4.702zM16.9 5.569a3.164 3.164 0 0 0-3.161-3.16H5.133a3.165 3.165 0 0 0-3.162 3.16v8.608a3.164 3.164 0 0 0 3.162 3.161h8.606a3.164 3.164 0 0 0 3.161-3.161V5.569zm-2.708.535c-.588 0-1.064-.478-1.064-.704 0-.949.476-1.426 1.064-1.426.587 0 1.063.477 1.063 1.426 0 .226-.476.704-1.063.704zM9.436 14.5a4.632 4.632 0 0 1-4.628-4.626 4.634 4.634 0 0 1 4.628-4.627c2.551 0 5.184 2.076 5.184 4.627 0 2.552-2.633 4.626-5.184 4.626zm0-7.711a3.089 3.089 0 0 0-3.087 3.085 3.091 3.091 0 0 0 3.087 3.087 3.09 3.09 0 0 0 3.086-3.087 3.088 3.088 0 0 0-3.086-3.085z"/>
</svg>
