<?xml version="1.0" encoding="utf-8"?>
<!-- Generator: Adobe Illustrator 26.0.1, SVG Export Plug-In . SVG Version: 6.00 Build 0)  -->
<svg version="1.1" id="레이어_1" xmlns="http://www.w3.org/2000/svg" xmlns:xlink="http://www.w3.org/1999/xlink" x="0px"
	 y="0px" viewBox="0 0 16 16" style="enable-background:new 0 0 16 16;" xml:space="preserve">
<style type="text/css">
	.st0{fill:#fff;}
</style>
<path class="st0" d="M6.2,12.3c-1.5,0-3.1-0.6-4.2-1.8C0.8,9.4,0.2,7.9,0.2,6.3c0-1.6,0.6-3.1,1.8-4.2l0,0c0,0,0,0,0,0
	c2.3-2.3,6.1-2.3,8.5,0c2.3,2.3,2.3,6.1,0,8.5C9.2,11.7,7.7,12.3,6.2,12.3z M6.2,2.3c-1,0-2,0.4-2.8,1.2v0C2.6,4.2,2.2,5.2,2.2,6.3
	c0,1.1,0.4,2.1,1.2,2.8c1.6,1.6,4.1,1.6,5.7,0c1.6-1.6,1.6-4.1,0-5.7C8.2,2.6,7.2,2.3,6.2,2.3z"/>
<path class="st0" d="M14.2,15.7l-5-5c-0.4-0.4-0.4-1,0-1.4l0,0c0.4-0.4,1-0.4,1.4,0l5,5c0.4,0.4,0.4,1,0,1.4l0,0
	C15.2,16.1,14.6,16.1,14.2,15.7z"/>
</svg>
