<?xml version="1.0" encoding="utf-8"?>
<!-- Generator: Adobe Illustrator 26.2.1, SVG Export Plug-In . SVG Version: 6.00 Build 0)  -->
<svg version="1.1" id="Layer_1" xmlns="http://www.w3.org/2000/svg" xmlns:xlink="http://www.w3.org/1999/xlink" x="0px" y="0px"
	 viewBox="0 0 30 30" style="enable-background:new 0 0 30 30;" xml:space="preserve">
<style type="text/css">
	.st0{fill:#FFFFFF;}
	.st1{fill:none;stroke:#FFFFFF;stroke-width:2;}
</style>
<g>
	<path class="st0" d="M27,8v14H3c0-0.7,0-1.5,0-2.3C4.9,19,6,17.3,6,15c0-1.8-1.1-3.7-3-4.6V8H27 M29,6H1v6c2,0,3,1.8,3,3
		c0,1.9-1,3-3,3c0.1,3.2,0,6,0,6h28V6L29,6z"/>
</g>
<path class="st1" d="M24,6v3 M24,11v3 M24,16v3 M24,21v3"/>
</svg>
