<?xml version="1.0" encoding="utf-8"?>
<!-- Generator: Adobe Illustrator 26.2.1, SVG Export Plug-In . SVG Version: 6.00 Build 0)  -->
<svg version="1.1" id="레이어_1" xmlns="http://www.w3.org/2000/svg" xmlns:xlink="http://www.w3.org/1999/xlink" x="0px"
	 y="0px" viewBox="0 0 30 30" style="enable-background:new 0 0 30 30;" xml:space="preserve">
<style type="text/css">
	.st0{fill:#FFFFFF;}
	.st1{fill:#1C1C1C;}
</style>
<path class="st0" d="M18.5,27h-7C6.8,27,3,23.2,3,18.5v-7C3,6.8,6.8,3,11.5,3h7c4.7,0,8.5,3.8,8.5,8.5v7C27,23.2,23.2,27,18.5,27z"
	/>
<path class="st1" d="M15.9,9.5v5.1l3.4,3.4c0.4,0.4,0.4,1,0,1.3c-0.4,0.4-1,0.4-1.3,0l-3.7-3.7c-0.2-0.2-0.3-0.4-0.3-0.7V9.5
	c0-0.5,0.4-0.9,0.9-0.9C15.5,8.5,15.9,9,15.9,9.5z"/>
</svg>
