<svg width="40" height="40" viewBox="0 0 40 40" fill="none" xmlns="http://www.w3.org/2000/svg">
<rect width="40" height="40" fill="white"/>
<path d="M10 15V30C10 31.6569 8.65685 33 7 33C5.34315 33 4 31.6569 4 30V15C4 13.3431 5.34315 12 7 12C8.65685 12 10 13.3431 10 15Z" stroke="black" stroke-width="2"/>
<path d="M10.1426 13.4424L29.3077 26.637C30.975 27.7849 31.3913 30.0696 30.236 31.7318V31.7318C29.082 33.3921 26.7991 33.7996 25.142 32.641L4.12248 17.9445" stroke="black" stroke-width="2"/>
<path d="M30.4579 25.7854L30.3607 10.7857C30.35 9.1289 31.6844 7.77709 33.3413 7.76636C34.9981 7.75563 36.3499 9.09005 36.3606 10.7469L36.4578 25.7465C36.4685 27.4034 35.1341 28.7552 33.4773 28.7659C31.8204 28.7766 30.4686 27.4422 30.4579 25.7854Z" stroke="black" stroke-width="2"/>
<path d="M30.3254 27.3439L11.0753 14.2737C9.4006 13.1366 8.96952 10.8546 10.114 9.18497V9.18497C11.2572 7.51722 13.5375 7.09499 15.202 8.24282L36.2921 22.7862" stroke="black" stroke-width="2"/>
</svg>
